<?xml version="1.0" encoding="utf-8"?>
<!-- Generator: Adobe Illustrator 26.0.1, SVG Export Plug-In . SVG Version: 6.00 Build 0)  -->
<svg version="1.1" id="Layer_1" xmlns="http://www.w3.org/2000/svg" xmlns:xlink="http://www.w3.org/1999/xlink" x="0px" y="0px"
	 viewBox="0 0 612 538.7" style="enable-background:new 0 0 612 538.7;" xml:space="preserve">
<style type="text/css">
	.st0{fill:url(#SVGID_1_);}
	.st1{fill:url(#SVGID_00000163759125260079317070000008699104532371138225_);}
	.st2{fill:url(#SVGID_00000150818537338612783020000016231845649714294206_);}
	.st3{fill:url(#SVGID_00000122680796056140490340000004202348179098500514_);}
	.st4{fill:url(#SVGID_00000054988673365989195090000005701606144237849474_);}
	.st5{fill:url(#SVGID_00000163754049936680331630000011635175664090743944_);}
	.st6{fill:#D0C42A;}
	.st7{fill:url(#SVGID_00000060020323275407946060000016984458289939791754_);}
	.st8{fill:#DCCA24;}
</style>
<linearGradient id="SVGID_1_" gradientUnits="userSpaceOnUse" x1="278.2894" y1="378.4318" x2="57.3651" y2="211.9534" gradientTransform="matrix(1 0 0 -1 0 540)">
	<stop  offset="0" style="stop-color:#211C5F"/>
	<stop  offset="1" style="stop-color:#181447"/>
</linearGradient>
<polygon class="st0" points="131.4,335.1 297.3,275.5 297.6,96 131.4,144 "/>
<linearGradient id="SVGID_00000155855946334447285690000005673940477594677654_" gradientUnits="userSpaceOnUse" x1="459.8034" y1="377.2637" x2="331.1786" y2="273.1054" gradientTransform="matrix(1 0 0 -1 0 540)">
	<stop  offset="0" style="stop-color:#181548"/>
	<stop  offset="1" style="stop-color:#161343"/>
</linearGradient>
<polygon style="fill:url(#SVGID_00000155855946334447285690000005673940477594677654_);" points="477.4,342.2 306,273.9 303,96 
	478.5,145.5 "/>
<linearGradient id="SVGID_00000077285225075540262840000014904081793062050453_" gradientUnits="userSpaceOnUse" x1="308.4127" y1="247.4986" x2="293.7962" y2="108.4316" gradientTransform="matrix(1 0 0 -1 0 540)">
	<stop  offset="0" style="stop-color:#151240"/>
	<stop  offset="1" style="stop-color:#161342"/>
</linearGradient>
<polygon style="fill:url(#SVGID_00000077285225075540262840000014904081793062050453_);" points="138.5,343.4 303.8,429.6 
	467.5,344.6 303,298.6 "/>
<radialGradient id="SVGID_00000144328499951650686910000015343767331259463553_" cx="408.7073" cy="428.9924" r="67.4208" fx="404.6462" fy="428.724" gradientTransform="matrix(-2.179737e-02 0.9998 2.1424 4.671031e-02 -602.3436 -220.4206)" gradientUnits="userSpaceOnUse">
	<stop  offset="0.1138" style="stop-color:#FFFFFF"/>
	<stop  offset="0.5229" style="stop-color:#6F6CAF"/>
	<stop  offset="0.6361" style="stop-color:#6B68A8"/>
	<stop  offset="0.6464" style="stop-color:#6A67A7"/>
	<stop  offset="0.7622" style="stop-color:#5F5B97"/>
	<stop  offset="0.9169" style="stop-color:#4D4A81"/>
	<stop  offset="0.9847" style="stop-color:#343465"/>
</radialGradient>
<circle style="fill:url(#SVGID_00000144328499951650686910000015343767331259463553_);" cx="302.9" cy="236.8" r="67.4"/>
<linearGradient id="SVGID_00000075883503990785523400000010224857654868380847_" gradientUnits="userSpaceOnUse" x1="307.6134" y1="224.1006" x2="127.9652" y2="349.8916">
	<stop  offset="0" style="stop-color:#211C60"/>
	<stop  offset="0.474" style="stop-color:#201B5E"/>
	<stop  offset="0.6831" style="stop-color:#1D1957"/>
	<stop  offset="0.8402" style="stop-color:#19154A"/>
	<stop  offset="0.9704" style="stop-color:#121038"/>
	<stop  offset="1" style="stop-color:#100E33"/>
</linearGradient>
<polygon style="fill:url(#SVGID_00000075883503990785523400000010224857654868380847_);" points="297.6,436.6 124.4,344.8 
	124.4,146.9 297.6,209.8 "/>
<linearGradient id="SVGID_00000018227894473830514040000008698429404893696915_" gradientUnits="userSpaceOnUse" x1="512.8901" y1="319.9739" x2="258.2018" y2="190.2037" gradientTransform="matrix(1 0 0 -1 0 540)">
	<stop  offset="0" style="stop-color:#3F3B71"/>
	<stop  offset="0.2287" style="stop-color:#38346D"/>
	<stop  offset="0.5663" style="stop-color:#252061"/>
	<stop  offset="0.6206" style="stop-color:#211C5F"/>
</linearGradient>
<polygon style="fill:url(#SVGID_00000018227894473830514040000008698429404893696915_);" points="310.4,436.6 483.6,344.8 
	483.6,146.9 310.4,209.8 "/>
<path class="st6" d="M208.8,226c-14.1-0.2-23.4,7.1-30.7,20.3c-1.3,2.4-1,5.7,0.8,7.5l7.5,7.5c1.8,1.8,4.4,1.4,5.9-0.9
	c4.5-7.1,7.9-11.1,14.8-11c5.4,0.1,12.1,4.7,12,11.4c-0.1,5.1-3.4,7.7-8.8,11.5c-6.3,4.4-14.7,9.9-14.9,24v2.2c0,3,1.8,5.5,4.2,5.5
	l12.8,0.2c2.3,0,4.3-2.4,4.3-5.4v-1.3c0.1-9.7,22.3-9.8,22.7-36.2C239.7,241.5,223.8,226.2,208.8,226z M205.9,310.8
	c-6.8-0.1-12.4,6.9-12.5,15.6s5.3,15.8,12.1,15.9s12.4-6.9,12.5-15.6C218.1,318,212.7,310.9,205.9,310.8z"/>
<linearGradient id="SVGID_00000058581542043401813120000009720312163768507270_" gradientUnits="userSpaceOnUse" x1="318.0072" y1="453.3095" x2="285.7919" y2="340.9613" gradientTransform="matrix(1 0 0 -1 0 540)">
	<stop  offset="0" style="stop-color:#6F6CAE"/>
	<stop  offset="0.193" style="stop-color:#6865A7"/>
	<stop  offset="0.4804" style="stop-color:#545093"/>
	<stop  offset="0.8252" style="stop-color:#342F72"/>
	<stop  offset="1" style="stop-color:#211C5F"/>
</linearGradient>
<polygon style="fill:url(#SVGID_00000058581542043401813120000009720312163768507270_);" points="124.4,139.8 302.8,201.3 
	481.3,139.3 302,89.6 "/>
<path class="st8" d="M401.2,226c-14.1,0.5-23,8.3-29.7,21.8c-1.2,2.4-0.7,5.7,1.2,7.4l7.9,7.1c1.9,1.7,4.5,1.2,5.8-1.2
	c4.2-7.3,7.3-11.5,14.2-11.8c5.4-0.2,12.3,4,12.6,10.8c0.2,5.1-3,7.9-8.2,11.9c-6.1,4.7-14.2,10.7-13.6,24.7l0.1,2.2
	c0.1,3,2.1,5.4,4.5,5.3l12.8-0.5c2.3-0.1,4.2-2.6,4-5.6v-1.3c-0.4-9.7,21.8-11,20.8-37.3C432.8,239.9,416.2,225.4,401.2,226z
	 M402.6,310.8c-6.8,0.3-12,7.5-11.7,16.2s6.1,15.5,12.8,15.3c6.8-0.3,12-7.5,11.7-16.2S409.4,310.6,402.6,310.8z"/>
</svg>
