<?xml version="1.0" encoding="utf-8"?>
<!-- Generator: Adobe Illustrator 26.0.1, SVG Export Plug-In . SVG Version: 6.00 Build 0)  -->
<svg version="1.0" xmlns="http://www.w3.org/2000/svg" xmlns:xlink="http://www.w3.org/1999/xlink" x="0px" y="0px"
	 viewBox="0 0 612 792" style="enable-background:new 0 0 612 792;" xml:space="preserve">
<style type="text/css">
	.st0{display:none;}
	.st1{fill:#22002C;stroke:#7F3F98;stroke-width:7;stroke-miterlimit:10;}
	.st2{display:inline;fill:#004A32;stroke:#006838;stroke-width:7;stroke-miterlimit:10;}
	.st3{display:inline;fill:#BE1E2D;stroke:#EF4136;stroke-width:7;stroke-miterlimit:10;}
	.st4{fill:#66A3AC;stroke:#66A3AC;stroke-miterlimit:10;}
	.st5{fill:none;stroke:#FFFFFF;stroke-miterlimit:10;}
	.st6{fill:#FFFFFF;stroke:#FFFFFF;stroke-miterlimit:10;}
	.st7{fill:none;stroke:#000000;stroke-miterlimit:10;}
	.st8{fill:none;stroke:#414042;stroke-miterlimit:10;}
	.st9{stroke:#000000;stroke-miterlimit:10;}
	.st10{fill:#F5E0CD;}
	.st11{fill:#ECC19C;}
	.st12{fill:#F5E0CD;stroke:#ECC19C;stroke-miterlimit:10;}
	.st13{fill:#D1D3D4;}
	.st14{fill:none;}
	.st15{fill:none;stroke:#E6E7E8;stroke-miterlimit:10;}
</style>
<g id="Layer_1" class="st0">
	
		<image style="display:inline;overflow:visible;" width="1920" height="1080" xlink:href="../../../Downloads/Untitled design.png"  transform="matrix(0.75 0 0 0.75 -457.5979 -9)">
	</image>
</g>
<g id="normal">
	<ellipse class="st1" cx="304.2" cy="364.4" rx="291.4" ry="345.5"/>
</g>
<g id="right" class="st0">
	<ellipse class="st2" cx="256.6" cy="350.3" rx="170.9" ry="202.7"/>
</g>
<g id="wrong" class="st0">
	<ellipse class="st3" cx="256.6" cy="350.3" rx="170.9" ry="202.7"/>
</g>
<g id="Layer_6">
	<path class="st4" d="M364.3,364.4l119.9,31.1l24.3,22.5c0,0,1.4,22.9-0.1,39.3c-2.2,25.3,39.9,268.4-51.6,280.9
		c0,0-101.8,29.2-197.7,9.5s-132.4-38.7-167.2-96.5c0,0,5.1-80.3,44.3-176.2c0,0-6.7-55,0-60.1l29.2,2.8l88.1-34.2
		c0,0-6.9,170.5,84.2,239.5c0,0,74.7-100.3,29.8-253.1"/>
</g>
<g id="Layer_7">
	<path class="st5" d="M166.8,417.2c0,0-3.9,128.5,33.7,204.9s57.3,126.3,57.3,126.3"/>
	<path class="st6" d="M144.9,592.3c0,0,43.2,16.3,55.6,29.7"/>
	<path class="st5" d="M388.5,423.5c0,0-30.9,16.1-35.9,29.6"/>
	<path class="st5" d="M238,393.3l-20.2,62.6l20.2,7.9L217.8,489c0,0,74.7,131.3,122.4,144.8l9.5,104.4"/>
	<polyline class="st5" points="380.6,374 417.7,425.1 401.9,440.4 	"/>
	<circle class="st6" cx="360.1" cy="644.8" r="7.6"/>
	<circle class="st6" cx="364.5" cy="701.7" r="8.9"/>
	<path class="st6" d="M254.9,379.8l15.7-9.8c0,0,11.2,43.5,51.1,42c0,0,18.2,3.2,26.7-50.5l19.3,2.9c0,0,43.8,138.6-29.8,257.6
		C337.9,622.1,242.5,570.3,254.9,379.8z"/>
	<path class="st7" d="M255.9,379.6c0,0,13.3,61,38.9,67.7l24-36.3L337,617.3"/>
	<path class="st8" d="M364.7,366.7c0,0,5.5,63-6.2,73.5l-29.3-28.8l16.6,200.4"/>
	<line class="st8" x1="263.4" y1="411.3" x2="273.3" y2="523"/>
	<line class="st8" x1="280.1" y1="436.7" x2="290.4" y2="562.3"/>
	<line class="st8" x1="294.8" y1="447.3" x2="305.1" y2="583.1"/>
	<line class="st8" x1="305.1" y1="429.3" x2="319.8" y2="601.6"/>
	<line class="st8" x1="341.6" y1="423.5" x2="355.8" y2="588.1"/>
	<line class="st8" x1="358.5" y1="440.2" x2="366" y2="558.9"/>
	<line class="st8" x1="366" y1="400.4" x2="378.6" y2="511.8"/>
	<path class="st8" d="M358.5,361.2c0,0-0.9,59.6-11.1,68"/>
	<path class="st8" d="M353,361.2c0,0-3.5,51.5-20.6,53.2"/>
	<path class="st8" d="M263.4,373.7c0,0,21.5,51.6,49.1,46.8"/>
	<path class="st8" d="M259,379.6c0,0,23.4,57.1,42.7,57.1"/>
	<circle class="st9" cx="332.4" cy="512.8" r="1.8"/>
	<circle class="st9" cx="329.3" cy="482.1" r="1.8"/>
	<circle class="st9" cx="327.5" cy="451.3" r="1.8"/>
	<circle class="st9" cx="335" cy="543.6" r="1.8"/>
	<circle class="st9" cx="337.8" cy="575.4" r="1.8"/>
	<path class="st5" d="M349.7,626.2c0,0,30-28.8,38.7-57.4"/>
	<path class="st5" d="M462.3,516"/>
	<path class="st5" d="M409.7,429.7"/>
</g>
<g id="Layer_2">
	<g>
		<path class="st10" d="M248,286.5c0,0-22.8-18.5-32.1-14.2c-9.3,4.3-12.3,11.7-9.9,22.8s14.2,20.4,24.1,23.5c9.9,3.1,21,1.9,22.2,8
			s26.5,91.3,66,84.6c0,0,4.9,1.9,16-8s13-45.1,13-45.1s8.6-5.6,14.8-13s14.2-60.5,12.3-70.4c-1.9-9.9-11.7-15.4-14.2-54.9
			s-17.3-38.3-17.3-38.3s-64.8-25.9-88.9,0s-30.9,30.2-22.2,55.6C240.6,262.5,248,286.5,248,286.5z"/>
		<path class="st11" d="M248.3,287c-0.1,0.1-0.3,0.1-0.5,0c-0.2-0.1-0.2-0.1-0.2-0.1l-0.1-0.1c0,0-0.2-0.1-0.2-0.1
			c-3.8-2.9-7.7-5.7-11.8-8.2c-4.2-2.5-8.6-4.9-13.4-5.9c-2.4-0.5-4.8-0.6-6.9,0.7c-2.2,1.1-4.2,2.5-5.8,4.3
			c-4.9,5.6-4.4,14.1-1.9,20.7c3.7,9.1,12.1,15.8,21.1,19.3c4.6,1.7,9.6,2.3,14.4,3.1c3,0.6,6.6,1.1,8.7,3.6
			c1.2,1.6,1.2,3.6,1.8,5.4c0.7,2.4,1.4,4.7,2.2,7.1c8.2,23.8,23.8,61.9,48,72.2c4.5,1.8,9.5,2.5,14.4,1.6c0,0,0.3,0,0.3,0
			c0.4,0.3,1.3,0.5,1.9,0.4c2.1-0.2,4-1.1,5.7-2.1c4.6-2.8,9.3-6.2,11.9-11c5.1-9.8,6.5-20.9,7.9-31.7c0.4-2.7,0.2-5.5,1-8.2
			c0,0,0-0.3,0-0.3s0.2-0.1,0.2-0.1c5.5-3.5,10.5-7.8,14.7-12.7c3-4.6,4-10.2,5.5-15.5c2.8-11.8,4.7-23.8,6-35.8
			c0.6-6,1.3-12,0.8-18c-0.9-6-4.7-11-7-16.6c-1.6-3.7-3-7.6-4-11.5c-3.1-10.7-3.6-22.1-4.5-33.1c-0.1-1.8-0.5-4.2-0.7-5.9
			c-0.6-3.9-1.3-7.9-2.5-11.6c-1.9-5.8-5.5-14-12.3-14.8c-20.4-7.3-42.3-13.2-64.2-11c-9.7,1.1-19.3,4.7-25.7,12.3
			c-1.3,1.5-5.3,5.6-6.7,7.2c-8.4,9.3-19.6,19.5-17.4,33.2c0.5,4.3,1.7,8.5,3.1,12.6c4,12,8.5,25.3,12.3,37.4
			c0.9,2.9,2.6,8.1,3.4,11c0.1,0.3,0.3,0.9,0.4,1.2C248.5,286.3,248.5,286.7,248.3,287L248.3,287z M247.7,286.1
			c-0.1,0-0.3,0.1-0.3,0.2c0,0,0,0.1,0,0.1l0-0.1c0,0-0.1-0.4-0.1-0.4c-1-3.2-2.7-8.5-3.7-11.7c-3.8-12.1-8.2-25.4-12.3-37.4
			c-2.2-6.7-4.3-14-3-21.2c2.2-10.4,10.7-18,17.5-25.7c2.6-2.7,6.4-7,9-9.6c3.2-3.1,7.1-5.5,11.2-7.1c23-8.7,55.6-0.1,77.1,7.9
			c8.5,0.3,13.2,11.1,15.2,18.1c0.9,2.9,1.5,6,2,9c0.2,1.8,0.7,4.3,0.8,6.1c0.9,10.9,1.9,22.1,4.1,32.9c1.3,5.9,3.1,11.6,5.7,17.1
			c1.7,3.7,3.8,7.3,4.3,11.4c0.5,6.1-0.3,12.2-1,18.2c-1.4,12-3.4,24-6.1,35.8c-1.4,5.3-2.4,11.1-5.6,15.8
			c-4.3,5.1-9.4,9.2-14.8,13.1c0,0,0.2-0.4,0.2-0.4c0.5,2.8-0.3,5.5-0.5,8.3c-1.7,11.7-4.5,30.6-14.3,38.1c-3.7,3-7.8,6-12.7,6.8
			c-0.8,0.1-1.4,0.3-2.2,0.3c0,0,0.3,0,0.3,0c-5,0.9-10.2,0.2-14.9-1.7c-26.3-10.9-44.6-57.4-51.8-83.6c-1.4-5-11.8-4.8-16.2-6
			c-14.4-2.5-29.3-13.9-30.7-29.2c-0.6-5,0.4-10.5,3.8-14.4c1.9-2.2,4.4-3.8,6.9-5c2.1-1,4.5-0.8,6.7-0.4c4.9,1.1,9.4,3.5,13.7,6.1
			c4,2.4,7.9,5.1,11.5,8c0.2,0.2,0.5,0.4,0.6,0.5c0,0,0.1,0-0.1,0C248,286,247.8,286.1,247.7,286.1L247.7,286.1z"/>
	</g>
	<path class="st12" d="M371.9,337"/>
	<path class="st12" d="M431.4,406.9"/>
	<g>
		<path class="st11" d="M285.2,320.4l-5.4,5.2c0,0,0.2-0.5,0.2-0.5c1.5,3.3,2.1,7.1,4.7,9.8c0.6,0.6,1.4,1.1,2.3,1.4
			c0.3,0.1,0.6,0.1,0.9-0.2l-0.1,1c-0.3-0.3-0.6-0.4-0.9-0.5c-1-0.2-1.9-0.7-2.6-1.3c-3.2-2.5-5.1-6.4-5.4-10.4c0,0,0.2-0.2,0.2-0.2
			L285.2,320.4L285.2,320.4z"/>
	</g>
</g>
<g id="Layer_11">
	<path class="st4" d="M379.4,573.6L344.9,461c0,0,24.4-33.7,55.9-22.3l61.6,94.2l-4.4,146.5c-0.1,2.6-3.6,3.4-4.8,1.1L379.4,573.6z"
		/>
	
		<ellipse transform="matrix(0.864 -0.5035 0.5035 0.864 -176.9968 250.9048)" class="st6" cx="376" cy="453.1" rx="28.6" ry="17.9"/>
	
		<ellipse transform="matrix(0.8509 -0.5252 0.5252 0.8509 -205.0567 264.9638)" class="st6" cx="364.3" cy="493.8" rx="7.6" ry="10.7"/>
	<path class="st5" d="M344.5,456.5c-1.6,32.6,74.1,218.1,65.2,193.2c0,0,16.2,20.9,30.1,20.9"/>
	<line class="st5" x1="401.3" y1="436.7" x2="453.9" y2="523"/>
	<ellipse transform="matrix(0.8509 -0.5252 0.5252 0.8509 -218.6732 275.4305)" class="st6" cx="376" cy="523" rx="7.6" ry="10.7"/>
</g>
<g id="Layer_5">
	<path class="st12" d="M374.8,329.3l1.1,9.3c0,0-1.5,16.1,1.3,22.5c7.8,18.2-3,56.2-1.3,56.8c6.2,2.4,14.9,17.3,14.9,17.3
		s-25.5,24.3-31.4,22s-8.3-9.4-8.3-9.4s-32.2-19.3-43.6-44.8c-11.4-25.5,3.7-14.1,3.7-14.1s-19.2-27.7,1.9-14.4
		c0,0-23.6-13.1-9.9-26.8c0,0-23.6-15.1-19.5-21.1s72.9,35.3,72.9,35.3l6.7-15.9l4-22.4L374.8,329.3z"/>
	<path class="st7" d="M328.2,364.5c0,0-52.3-32.8-44.7-38.4c0,0,6.9-5.2,54.5,24.7l17.8,7.7c2.6-11.9,3.7-6,6.4-13.4
		c2.7-7.4,2.8-10.9,2.8-10.9s0,0,0.8-7.7c0.8-7.7,7.9,2,7.9,2l1.1,9.3c0,0-1,22,3.3,28c4.3,6-3.3,45.5-3.3,45.5s11.6,17.6,16,20.8"
		/>
	<path class="st7" d="M316.3,377.1c0,0-29.4-16.9-13.4-29.9"/>
	<path class="st7" d="M317.2,397.9"/>
	<path class="st7" d="M316.3,371.5"/>
	<path class="st7" d="M390.8,432.2c0,0-21.9,24.2-32.5,24.3c-6.3,0.1-19.6-22-19.6-22c-9.4,5.7-30.2-29.3-30.2-29.3
		c-15.6-34.3,7.1-7.3,7.1-7.3s-19.1-26.6-10.4-27.4"/>
</g>
<g id="Layer_3">
	<path class="st9" d="M241.4,261l1.8,6.3c0,0-11.3,7-11.3,8.4s-4.6-2.7-4.6-2.7L241.4,261z"/>
	<path class="st9" d="M244.1,270.5l1.4,5.5l-6.6,3.4l-5.2-2C233.7,277.3,242.1,270.3,244.1,270.5z"/>
	<path class="st9" d="M241.9,281.4l7.3,6.6l-3.6-8.6C245.5,279.3,242.8,279.1,241.9,281.4z"/>
	<path class="st9" d="M260.7,198.9c0,0-9.7,4.8-9.5,26.7c0.2,22-17.2,42.2-24.7,44.9c-7.5,2.7-11.6,0.5-18.1,5.5
		c-6.6,5-32.2-37.4-26.1-51.5c0,0,0.7-5.4,10.2-9.5c9.5-4.1,31.7-26.7,34-34.7s2.7-15.4,7.9-19.5c5.2-4.1,29.5-18.6,37.6-19
		c8.2-0.5,29.5,1.1,43.1,12.2s19,12.9,31.7,11.1s21.1-5.2,24.9-0.5s6.8,6.6,6.3,15.4s0.7,25.6-2.5,30.4
		c-3.2,4.8-17.2,14.6-17.2,14.6l-0.7-13.9c0,0-4.5-12.2-8.4-11.8c-3.9,0.5-11.1,5.7-16.5,7.3c-5.4,1.6-32.2,8.4-57.4-18.8
		c0,0-9.7-1.8-12.2,1.4C260.7,192.3,260.7,198.9,260.7,198.9z"/>
	<path class="st9" d="M324.6,228.8c0,0-0.7,4.1,0.4,6.4c1.1,2.3,11.5-11.8,13.1-10.9s8.4-0.4,10.1-0.9l0.6-7.9
		c0,0-13.5-0.8-15.5,0.1C331.3,216.5,324.6,228.8,324.6,228.8z"/>
	<g>
		<path d="M304.6,272.5c1,9.6-9.1,11.4-16.5,10c-6.5-0.8-12.5-3.6-18.4-6.5c0,0-1.3-0.6-1.3-0.6c-0.5-0.2-0.9-0.6-1.5-0.1
			c0,0,0.4-0.9,0.4-0.9c0,0.8,0.6,0.8,1.1,1c3,1.3,6.1,2.2,9.2,3.1C286.3,281,304,286.4,304.6,272.5L304.6,272.5z"/>
	</g>
	<g>
		<path d="M360.6,243.1c-0.6,0.1-0.6,0.3-0.6,0.5l-0.1,0.6l-0.3,1.1c-1.3,5.3-2.7,10.8-6.3,15.2c-3.1,4.1-8.3,5.9-12.9,3.3
			c-1.4-0.7-2.7-1.7-3.8-2.7c1.3,0.8,2.6,1.7,4.1,2.3c4.3,2.1,9.1,0.3,11.8-3.5c3.6-4.7,6.1-10.4,7.5-16.2c0-0.2,0.1-0.4-0.4-0.7
			L360.6,243.1L360.6,243.1z"/>
	</g>
	<path class="st7" d="M217,285.3c0,0,11.2-1.4,17.8,7.5"/>
	<path class="st9" d="M336.6,304.7c0,0-22.8,3.2-28.5,6.8c-5.7,3.7-13.7,5.7-13.7,5.7l1.9,1.6c0,0,30.5,2.3,44.9-7.1l-1-3.9l3,2.3
		c0,0,17.1-11.4,16.9-13.2C360.1,296.9,348.9,293.9,336.6,304.7"/>
	<path class="st7" d="M358.1,299.3"/>
	<path class="st7" d="M356.9,307.8"/>
	<path class="st7" d="M307.2,326.6"/>
	<path class="st7" d="M328.9,263.1c0,0,11.4,15.1,16.6,14.6c2.6-0.2,1.2,0.2,1.2,0.2s0.5,14.7-4.3,16.5"/>
	<path class="st7" d="M332,289c0,0-6.9,4.3-6.1,5.4"/>
	<path class="st8" d="M364.3,367"/>
	<path class="st8" d="M358.1,361.5"/>
	<path class="st8" d="M352.6,361.5"/>
	<path class="st9" d="M270.9,245.1c0,0-3.2,7.9-2.4,10.5s17.1-11.6,18.9-10.2s12.6,2.9,14.7,2.9l1.3-3.6c0,0-11.1-9.2-13.8-8.9
		S270.9,245.1,270.9,245.1z"/>
	<g>
		<polygon class="st11" points="308.1,238.9 312.9,243 313.2,243.3 313,243.6 310.3,248 312.1,243.2 312.2,243.8 308.1,238.9 		"/>
	</g>
	<g>
		<polygon class="st11" points="318,234.2 321,240 320.5,239.7 324.4,240.2 320.5,240.8 320.1,240.9 320,240.5 317.8,234.3 
			318,234.2 		"/>
	</g>
	<g>
		<path class="st11" d="M294.4,327.4c0.5,0.7,0.9,0.5,1.4,0.6c6.9,0.3,13.9,0.5,20.9,0.1c-2.1,0.6,36.3-14.9,35.8-14.8
			c0,0,0.2,0.5,0.2,0.5L317,330c-0.2,0.1-0.2,0.1-0.4,0.1c-6.9-1.1-13.8-1.6-20.8-2.1c-0.5,0-0.9-0.3-1.4,0.4V327.4L294.4,327.4z"/>
	</g>
</g>
<g id="Layer_4">
	<g>
		<path class="st13" d="M202.4,240.9c0,0,0-0.1-0.1-0.1c0,0,0,0,0,0c-0.1,0.2,0,0.4,0,0.6c2.2,3.1,5.5,5.5,8.8,7.4
			c8.6,4.8,15.9,2.4,20.8-6c4.2-7.1,6.3-15.1,8.3-23.1c1.8-7.3,5.9-28,15.4-27.7c1.4,0.2,2.4,1.5,3.4,2.4c0,0,2.9,3.4,2.9,3.4
			l-3.6-2.7c-16.2-10.6-26,13.4-29.5,25.7c0,0-0.1,0-0.1,0c1.1-3.8,2.3-7.5,3.8-11.1c1.5-3.6,3.3-7.1,5.7-10.3c5-7,13.4-10.4,20.9-5
			c0,0-0.7,0.7-0.7,0.7c-0.9-1-1.9-2.3-3.4-2.2c-8.5,1.3-12.5,19.7-14.3,26.9c-1,4-2.1,7.9-3.5,11.8c-2.1,5.7-4.5,11.7-8.9,16.1
			c-8.7,8.4-20,0.5-26.5-6.6c-0.1-0.1-0.2-0.3-0.2-0.4C201.5,240.7,202.4,240.9,202.4,240.9L202.4,240.9z"/>
	</g>
	<g>
		<path class="st13" d="M296,154.2c-13.6-0.4-46.6-1.4-47.9,17.2c-0.3,7.6,4.4,15.3,9.1,20.9c0,0-0.9,0.4-0.9,0.4
			c-1.6-8.5-1.9-19.3,5.4-25.2c4.5-3.3,10.4-3.3,15.6-2.3c13.9,2.9,27.2,8.1,40.6,12.5c6.8,2.3,13.9,1.8,20.9,0.9
			c6.9-0.5,14.4-2.3,21.1,0.5c1.6,0.8,2.9,2.1,4.3,3.2c2.6,2.3,5.4,4.9,6,8.5c0.3,1.8,0,3.6-0.4,5.3c-0.8,3.5-1.8,6.9-3.2,10.1
			c-1.4,3.2-3.1,6.6-6.2,8.4c1.6-0.8,2.8-2.2,3.7-3.7c2.9-4.5,4.3-9.7,5.5-14.8c0.4-1.7,0.6-3.5,0.3-5.2c-0.6-3.6-3.4-6.1-6-8.4
			c-4.1-4.2-9-4.8-14.6-4.5c-10.5,0.5-21.3,3.7-31.7,0.2c-13.4-4.3-26.7-9.5-40.6-12.2c-3.4-0.6-7-0.8-10.4,0.1
			c-12.1,3.2-11.6,18.6-9.2,28.4c-5-5.9-9.5-12.8-10.4-20.6c0-0.7-0.1-1.8,0-2.5C249,152.3,282,153.7,296,154.2L296,154.2z"/>
	</g>
	<g>
		<path class="st13" d="M256.4,192.7c0.7-5.3,2-11.7,7.1-14.5c11.4-4.2,18-4,28.7,2.2c4.3,2.6,8.9,5.7,12.4,9.1
			c-4-3.2-8.1-6.3-12.6-8.8c-8.6-4.9-16.2-6.4-25.5-2.6c-1.2,0.4-2.4,0.6-3.5,1.4c-4.1,3-5.1,8.6-5.7,13.4
			C257.4,192.7,256.4,192.7,256.4,192.7L256.4,192.7z"/>
	</g>
	<path class="st7" d="M261.8,196.8"/>
	<g>
		<path d="M261.3,196.9c-1-10.4,10.1-7,15.6-3.6c7.3,4.4,12.3,11.4,19.8,15.3c10.4,5.6,22.8,4.9,34.2,3.1
			c-10.6,1.8-22.1,2.8-32.2-1.6c-8.7-3.4-14.5-11.5-22.3-16c-3.4-1.8-10.2-5.3-13.2-1.8c-0.9,1.2-1.1,2.9-0.9,4.4
			C262.3,196.7,261.3,196.9,261.3,196.9L261.3,196.9z"/>
	</g>
	<g>
		<path d="M226.5,178.7c-6.9-12.3,0.8-21.7,12.8-25.5c3.5-1.2,7.1-2,10.7-2.6c0,0,0.1,0.7,0.1,0.7c-3.6,0.6-7.1,1.4-10.6,2.6
			c-11.4,3.7-18.8,12.5-12.2,24.2C227.3,178.2,226.5,178.7,226.5,178.7L226.5,178.7z"/>
	</g>
	<g>
		<path class="st14" d="M288.4,281.3"/>
	</g>
	<g>
		<path class="st14" d="M289.1,263.1"/>
	</g>
	<path class="st15" d="M350.2,257.5"/>
	<path class="st15" d="M348.4,238.9"/>
</g>
</svg>
