<?xml version="1.0" encoding="utf-8"?>
<!-- Generator: Adobe Illustrator 26.0.1, SVG Export Plug-In . SVG Version: 6.00 Build 0)  -->
<svg version="1.0" xmlns="http://www.w3.org/2000/svg" xmlns:xlink="http://www.w3.org/1999/xlink" x="0px" y="0px"
	 viewBox="0 0 612 792" style="enable-background:new 0 0 612 792;" xml:space="preserve">
<style type="text/css">
	.st0{display:none;}
	.st1{fill:#22002C;stroke:#7F3F98;stroke-width:7;stroke-miterlimit:10;}
	.st2{fill:#004A32;stroke:#006838;stroke-width:7;stroke-miterlimit:10;}
	.st3{fill:#BE1E2D;stroke:#EF4136;stroke-width:7;stroke-miterlimit:10;}
	.st4{fill:#66A3AC;stroke:#66A3AC;stroke-miterlimit:10;}
	.st5{fill:none;stroke:#FFFFFF;stroke-miterlimit:10;}
	.st6{fill:#FFFFFF;stroke:#FFFFFF;stroke-miterlimit:10;}
	.st7{fill:#F5E0CD;}
	.st8{fill:#ECC19C;}
	.st9{fill:#F1F2F2;}
	.st10{stroke:#000000;stroke-miterlimit:10;}
	.st11{fill:none;stroke:#000000;stroke-miterlimit:10;}
	.st12{fill:none;stroke:#414042;stroke-miterlimit:10;}
	.st13{fill:#D1D3D4;}
	.st14{fill:none;}
	.st15{fill:none;stroke:#E6E7E8;stroke-miterlimit:10;}
</style>
<g id="Layer_1" class="st0">
	
		<image style="display:inline;overflow:visible;" width="1920" height="1080" xlink:href="../../../Downloads/Untitled design.png"  transform="matrix(0.75 0 0 0.75 -457.5979 -9)">
	</image>
</g>
<g id="normal">
	<ellipse class="st1" cx="304.9" cy="357.3" rx="292.4" ry="346.8"/>
</g>
<g id="right">
	<ellipse class="st2" cx="304.9" cy="357.3" rx="292.4" ry="346.8"/>
</g>
<g id="wrong">
	<ellipse class="st3" cx="304.9" cy="357.3" rx="292.4" ry="346.8"/>
</g>
<g id="Layer_6">
	<path class="st4" d="M365.2,357.3l116.1,19.1l14.6,25.4c0,0,43.7,10.5,42.2,27c-2.3,25.3,9,238.7-82.8,251.2
		c0,0-99.4,81.7-195.6,62c-96.2-19.7-132.8-38.9-167.7-96.9c0,0,5.1-80.5,44.5-176.9c0,0-6.8-55.2,0-60.3l29.3,2.8l88.4-34.4
		c0,0-7,171.1,84.5,240.4c0,0,74.9-100.7,29.9-253.9"/>
</g>
<g id="Layer_7">
	<path class="st5" d="M166.9,410.2c0,0-3.9,129,33.8,205.6s57.5,126.7,57.5,126.7"/>
	<path class="st6" d="M145,586c0,0,43.4,16.3,55.8,29.9"/>
	<path class="st5" d="M502.9,405c0,0-46.5,1.3-51.6,14.8s-36.6,203.3-27,223.6s28.7,37.7,28.7,37.7"/>
	<path class="st5" d="M238.5,386.3l-20.3,62.8l20.3,7.9l-20.3,25.3c0,0,74.9,131.8,122.8,145.3l9.6,104.8"/>
	<path class="st5" d="M381.5,366.9l37.2,51.3l-15.8,15.4l28.2,18.9c0,0-51.8,153.2-80.5,168.4"/>
	<circle class="st6" cx="361" cy="638.7" r="7.6"/>
	<circle class="st6" cx="365.4" cy="695.8" r="8.9"/>
	
		<ellipse transform="matrix(0.5291 -0.8486 0.8486 0.5291 -151.3987 665.9488)" class="st6" cx="524.3" cy="469.4" rx="10.7" ry="7.6"/>
	
		<ellipse transform="matrix(0.5291 -0.8486 0.8486 0.5291 -174.6587 675.5659)" class="st6" cx="521.4" cy="495.2" rx="10.7" ry="7.6"/>
	
		<ellipse transform="matrix(0.9989 -4.653098e-02 4.653098e-02 0.9989 -19.6369 23.2856)" class="st6" cx="490.3" cy="433.4" rx="35.6" ry="23.1"/>
	<path class="st6" d="M255.4,372.7l15.8-9.9c0,0,11.3,43.6,51.3,42.1c0,0,18.3,3.2,26.8-50.7l19.4,2.9c0,0,43.9,139.1-29.9,258.5
		C338.7,615.8,243,563.9,255.4,372.7z"/>
</g>
<g id="Layer_2">
	<g>
		<path class="st7" d="M248.5,279.1c0,0-22.9-18.6-32.2-14.2c-9.3,4.3-12.4,11.8-9.9,22.9c2.5,11.1,14.2,20.4,24.2,23.5
			c9.9,3.1,21.1,1.9,22.3,8.1s26.6,91.7,66.3,84.9c0,0,5,1.9,16.1-8.1c11.1-9.9,13-45.2,13-45.2s8.7-5.6,14.9-13
			s14.2-60.7,12.4-70.6s-11.8-15.5-14.2-55.1s-17.3-38.4-17.3-38.4s-65-26-89.2,0s-31,30.4-22.3,55.7S248.5,279.1,248.5,279.1z"/>
		<path class="st8" d="M248.8,279.6c-0.1,0.1-0.3,0.1-0.5,0c-0.2-0.1-0.2-0.1-0.2-0.1l-0.1-0.1l-0.2-0.1c-3.8-3-7.7-5.7-11.8-8.2
			c-4.2-2.5-8.7-4.9-13.5-6c-2.4-0.5-4.8-0.6-6.9,0.7c-2.2,1.1-4.2,2.5-5.8,4.3c-6.4,7.6-3.9,19.8,1.7,27.1
			c4.5,5.8,10.7,10.4,17.6,13c4.6,1.8,9.6,2.3,14.5,3.1c3,0.6,6.6,1.1,8.8,3.7c1.2,1.6,1.2,3.7,1.9,5.4
			c7.8,25.4,24.7,68.7,50.4,79.6c4.5,1.8,9.6,2.5,14.4,1.6c0,0,0.3,0,0.3,0c0.4,0.3,1.3,0.5,1.9,0.4c2.1-0.2,4-1.1,5.8-2.1
			c4.6-2.8,9.3-6.2,11.9-11.1c5.1-9.8,6.6-21,7.9-31.8c0.4-2.7,0.2-5.5,1-8.2c0,0,0-0.3,0-0.3s0.2-0.1,0.2-0.1
			c5.5-3.5,10.5-7.8,14.8-12.8c3.1-4.6,4.1-10.2,5.5-15.5c2.8-11.8,4.7-23.8,6-35.9c0.6-6,1.3-12.1,0.8-18.1c-0.9-6-4.7-11-7-16.6
			c-1.6-3.7-3-7.6-4.1-11.6c-3.1-10.8-3.7-22.1-4.5-33.2c-0.1-1.8-0.5-4.2-0.7-6c-0.6-3.9-1.3-7.9-2.5-11.7
			c-1.9-5.8-5.5-14-12.4-14.9c-20.5-7.3-42.5-13.2-64.4-11c-9.7,1.1-19.4,4.7-25.8,12.3c-1.3,1.5-5.3,5.7-6.8,7.2
			c-8.4,9.3-19.6,19.6-17.4,33.3c0.5,4.3,1.7,8.5,3.1,12.7c4.1,12,8.5,25.4,12.3,37.6c0.9,2.9,2.6,8.1,3.5,11
			c0.1,0.3,0.3,0.9,0.4,1.2C249,278.9,248.9,279.3,248.8,279.6L248.8,279.6z M248.2,278.7c-0.1,0-0.3,0.1-0.3,0.2c0,0,0,0.1,0,0.1
			c0,0,0-0.1,0-0.1s-0.1-0.4-0.1-0.4c-1-3.2-2.7-8.5-3.7-11.8c-3.8-12.2-8.3-25.5-12.3-37.6c-2.2-6.8-4.3-14-3-21.2
			c2.2-10.5,10.7-18.1,17.5-25.8c2.6-2.7,6.4-7,9.1-9.6c3.2-3.1,7.1-5.5,11.2-7.1c23.1-8.7,55.8-0.1,77.3,7.9
			c8.5,0.3,13.2,11.1,15.2,18.2c0.9,2.9,1.5,6,2,9c0.2,1.8,0.7,4.3,0.8,6.1c0.9,11,1.9,22.2,4.1,33c1.3,5.9,3.1,11.7,5.7,17.1
			c1.7,3.7,3.8,7.3,4.3,11.5c0.5,6.1-0.3,12.2-1,18.3c-1.4,12.1-3.4,24.1-6.2,36c-1.4,5.4-2.5,11.1-5.6,15.8
			c-4.3,5.1-9.4,9.3-14.8,13.1c0,0,0.2-0.4,0.2-0.4c0.5,2.8-0.3,5.6-0.5,8.3c-1.7,11.7-4.5,30.8-14.3,38.2c-3.7,3-7.9,6-12.7,6.8
			c-0.8,0.1-1.4,0.3-2.2,0.3c0,0,0.3,0,0.3,0c-5,0.9-10.3,0.2-14.9-1.7c-26.4-10.9-44.8-57.6-52-83.9c-1.4-5-11.8-4.9-16.3-6
			c-14.5-2.5-29.4-13.9-30.8-29.3c-0.6-5,0.4-10.5,3.8-14.4c1.9-2.2,4.4-3.8,6.9-5c2.1-1,4.5-0.8,6.7-0.4c5,1.1,9.4,3.5,13.8,6.1
			c4,2.4,7.9,5.1,11.6,8c0.2,0.2,0.5,0.4,0.6,0.5c0,0,0.1,0-0.1,0C248.5,278.6,248.3,278.6,248.2,278.7L248.2,278.7z"/>
	</g>
	<g>
		<path class="st7" d="M469,428.4c0,0,1.2,16.7,39.6,11.1c0,0,9.3-47.1,18.6-52c9.3-5,0-24.8,0-24.8s-18.6-26.6-18.6-37.2h-11.1
			c0,0,13-41.5,16.1-53.3c3.1-11.8,6.8-18.6,6.8-18.6s-8.9-9.3-20.2,8.1c-11.4,17.3-15.1,55.7-20,61.3c-5,5.6-26,22.2-35.9,22.9
			c0,0-8.1,33.5,4.3,49.6C460.9,411.7,469,428.4,469,428.4z"/>
		<path class="st8" d="M469.5,428.3c2.4,11,18.7,12.2,28,11.8c3.2-0.1,7.9-0.6,11.1-1c0,0-0.4,0.4-0.4,0.4
			c1.4-6.8,3.1-13.5,4.8-20.2c2.9-9.9,5.3-20.3,10.9-29.1c0.6-0.9,1.4-1.8,2.2-2.5c0,0,0.6-0.4,0.6-0.4c1.8-1,3.1-2.6,3.6-4.6
			c1.4-6.5-1.3-13.5-4-19.4c-1.6-2-4.1-5.8-5.9-8.5c-3.8-5.9-7.5-12-10.3-18.5c-0.7-1.6-1.3-3.4-1.7-5.1c-0.4-1.8-0.6-3.6-0.3-5.5
			c0,0,0.5,0.5,0.5,0.5s-11.1,0-11.1,0c0,0-0.7,0-0.7,0c5.9-18.1,11.8-36.3,16.8-54.7c1.6-6.1,3.6-12.1,6.3-17.8
			c0,0,0.1,0.6,0.1,0.6c-4.2-4-10.4-2.2-14.2,1.6c-14,13.4-17.1,43-22.6,61.4c-0.7,2.2-1.3,4.5-2.8,6.3c-2.3,2.4-4.8,4.6-7.4,6.7
			c-4.3,3.5-8.8,6.8-13.5,9.7c-4.8,2.8-9.7,5.9-15.4,6.6c0,0,0.5-0.4,0.5-0.4c-1.6,7.3-2.5,14.7-2.6,22.2c0,7.4,0.7,15,3.7,21.8
			c1.5,3.5,3.9,6.3,6.1,9.3C458.5,408.5,464.4,418.2,469.5,428.3L469.5,428.3z M468.5,428.5c-5-10-10.8-19.6-17.4-28.6
			c-2.2-3-4.7-6-6.2-9.5c-3.1-6.9-3.8-14.7-3.8-22.2c0.1-7.5,1-15,2.6-22.4l0.1-0.4l0.4,0c5.4-0.6,10.3-3.7,14.9-6.5
			c4.7-2.9,9.2-6.2,13.4-9.7c2.5-2.1,5-4.2,7.2-6.6c1.3-1.7,1.9-3.9,2.6-6c1.6-5.3,2.7-10.7,4-16.1c3.8-15,7.4-34.8,18.9-45.8
			c4.3-4.2,11.1-6.1,15.8-1.3c-3,5.6-5.2,11.7-7,17.8c-3.3,12-12.4,41.9-16.1,54.3c0,0-0.5-0.7-0.5-0.6c0,0,11.1,0,11.1,0
			s0.4,0,0.4,0c0.6,3.5,2.3,6.7,3.7,10c1.4,3.1,3,6.2,4.6,9.2c3.3,6.1,7,12.2,10.8,18c2.5,6.5,5,13.6,3.3,20.6
			c-0.6,2.2-2.2,4.2-4.2,5.2c0,0-0.5,0.3-0.5,0.3c-0.3,0.2-0.6,0.6-0.9,0.8c-2.7,3-4.3,6.8-5.8,10.5c-5,12.8-8.2,26.3-10.9,39.8
			c0,0-0.1,0.4-0.1,0.4c0,0-0.3,0-0.3,0c-11,1.3-23.1,2.6-33.2-2.8C472.2,435.5,469.1,432.4,468.5,428.5L468.5,428.5z"/>
	</g>
</g>
<g id="Layer_5">
	<g>
		<path class="st9" d="M295,313.7c0,0,21,25.6,43.7,20.7c0,0,25.4-12.4,20.2-42.4C359,291.9,297,314.6,295,313.7z"/>
		<path class="st8" d="M295.4,314c0.1-0.1,0.2-0.4,0-0.5c0,0,0.1,0.1,0.1,0.1s0.1,0.2,0.1,0.2c2.5,3.2,5.8,5.7,8.9,8.3
			c9.4,7.9,21.5,15.1,34.2,12.4c15.8-8.9,23.2-24.4,19.7-42.3c0,0,0.7,0.4,0.7,0.4c-15.1,5.9-32.2,12.2-47.6,17.5
			c-4,1.4-8,2.7-12.1,3.9c-1.3,0.4-2.7,0.9-4.1,0.5C294.9,314.2,295.4,314.3,295.4,314L295.4,314z M294.6,313.4
			c0.1-0.1,0.3-0.2,0.5-0.2c0.1,0,0.1,0,0.1-0.1c1.1-0.7,2.3-1,3.6-1.4c4-1.2,8-2.5,12-3.8c10.2-3.5,37.4-12.8,48-16.4
			c0,0,0.6-0.2,0.6-0.2c0,0,0.1,0.6,0.1,0.6c3.2,16.8-5.7,34.5-20.7,42.5c-14.8,3-29.8-5.1-39.7-15.7c-1-1.1-2.8-3-3.8-4.1
			C294.9,314.2,294.3,313.9,294.6,313.4L294.6,313.4z"/>
	</g>
	<path class="st6" d="M268.1,268.8c0,0,3.2,16,20.2,11.5c17-4.5,15.7-15.3,15.7-15.3s-15.7-10.9-20.2-10.9
		C279.3,254.2,271.7,255.6,268.1,268.8z"/>
	<path class="st6" d="M337.4,255.2c0,0,5.1,6.6,15,3.6c9.9-3,9.8-18.7,8.6-22c-1.1-3.3-6.4-8-9.8-8.1
		C345,228.4,341.3,239.3,337.4,255.2z"/>
</g>
<g id="Layer_3">
	<path class="st10" d="M241.8,253.5l1.8,6.4c0,0-11.4,7.1-11.4,8.4s-4.7-2.7-4.7-2.7L241.8,253.5z"/>
	<path class="st10" d="M244.6,263l1.4,5.5l-6.6,3.4l-5.2-2C234.1,269.9,242.5,262.8,244.6,263z"/>
	<path class="st10" d="M242.3,274l7.3,6.6l-3.6-8.6C245.9,271.9,243.2,271.7,242.3,274z"/>
	<path class="st10" d="M261.2,191.2c0,0-9.8,4.8-9.6,26.8c0.2,22.1-17.3,42.3-24.8,45s-11.6,0.5-18.2,5.5
		c-6.6,5-32.3-37.6-26.2-51.7c0,0,0.7-5.5,10.2-9.6c9.6-4.1,31.8-26.8,34.1-34.8s2.7-15.5,8-19.6s29.6-18.7,37.8-19.1
		c8.2-0.5,29.6,1.1,43.2,12.3s19.1,13,31.8,11.1c12.7-1.8,21.2-5.2,25-0.5c3.9,4.8,6.8,6.6,6.4,15.5s0.7,25.7-2.5,30.5
		c-3.2,4.8-15.2,13.2-15.2,13.2l-2.7-12.5c0,0-4.5-12.3-8.4-11.8c-3.9,0.5-11.1,5.7-16.6,7.3s-32.3,8.4-57.6-18.9
		c0,0-9.8-1.8-12.3,1.4C261.2,184.6,261.2,191.2,261.2,191.2z"/>
	<path class="st10" d="M299.8,228.1l-6-10.8c0,0-20.4,14.9-23.4,15.8c-3,0.9-8,13.6-6.9,20.3C263.6,253.5,294.6,228.1,299.8,228.1z"
		/>
	<path class="st10" d="M327.3,215.8c0,0-1.4,8.5,0,10.8c1.4,2.3,14.2-15.1,16.3-14.2c2.1,0.9,10.5,6.6,12.6,6.2l1.1-7.6
		c0,0-11.2-9.4-13.7-8.5C341.1,203.4,327.3,215.8,327.3,215.8z"/>
	<g>
		<path d="M305.3,265c-12.4-11.1-27.5-16.4-36.9,1.1c-0.2,0.5-0.7,0.9-0.2,1.5c0,0-0.9-0.4-0.9-0.4c0.8-0.1,0.8-0.6,1.1-1.1
			C276.6,246.6,293.6,252.2,305.3,265L305.3,265z"/>
	</g>
	<g>
		<path d="M360.6,235.7c0.3-0.5,0.2-0.7,0-0.8l-0.4-0.5c-10.3-12.4-16.8-2.8-20.1,8.6c-1.1,3.5-1.9,7-2.7,10.5
			c0.4-3.6,1-7.2,1.9-10.7c3.1-13.1,11-21.7,21.3-7.9c0.1,0.2,0.2,0.4,0.8,0.3L360.6,235.7L360.6,235.7z"/>
	</g>
	<path class="st10" d="M289,254.7c0,0-10.6,12.3,0,21.5c0,0,12.3,3.3,8.6-16.7L289,254.7z"/>
	<path class="st10" d="M347.4,230.3c0,0-4.5,22.2,4.2,22.6c8.7,0.5,8.4-17.8,5.7-20.3C354.7,230.1,350.9,226.7,347.4,230.3z"/>
	<path class="st11" d="M217.4,277.8c0,0,11.3-1.4,17.9,7.6"/>
	<path class="st11" d="M263.5,326c0,0,14.8,16.7,21.9,18.1c7.1,1.4,44.2,10.3,48.6,10.3s10.1-2.1,12.3-2.3"/>
	<path class="st10" d="M337.4,297.3c0,0-22.9,3.2-28.6,6.9c-5.7,3.7-13.7,5.7-13.7,5.7l2,1.6c0,0,30.7,2.3,45-7.1l-1-3.9l3,2.3
		c0,0,17.2-11.5,17-13.3C361,289.5,349.8,286.6,337.4,297.3"/>
	<path class="st11" d="M359,291.9c0,0,1.6,21.4-2.8,24.2"/>
	<path class="st11" d="M307.8,319.3c0,0,23,9.3,49.9-18.8"/>
	<path class="st11" d="M329.6,255.6c0,0,11.5,15.1,16.6,14.7c2.6-0.2,1.2,0.2,1.2,0.2s0.5,14.7-4.4,16.5"/>
	<path class="st11" d="M332.8,281.6c0,0-6.9,4.3-6.1,5.4"/>
	<path class="st11" d="M480.7,326c0,0,9,6.1,0.8,14.2s-10.5,14.1-14.2,14.2s-9.5,0-9.5,0h9.5l-1.4,14.3c0,0,8,6.8,13.4,25.1"/>
	<path class="st11" d="M498.4,326c0,0-22.3,18.2-23.4,21.5s1,19.3,1.4,22c0.4,2.7,3.7,3.3,3.7,3.3"/>
	<path class="st11" d="M508.7,339.5c0,0-18.7,10.3-20.3,12.7c-1.6,2.5-6.6,14.6-7,20.5c-0.4,6,4.1,12.5,9.5,13.4
		c5.3,0.8,0.2-1,0.2-1s4.9-19.1,6.6-20.1c1.6-1,23-9.7,23-9.7"/>
	<path class="st11" d="M521.8,376.4c0,0-11.1,0.4-14.4,3.1s-20,14.8-22.4,23s0.2,26.5,4.6,31"/>
	<path class="st11" d="M255.9,372.7c0,0,13.4,61.2,39.1,67.9l24.1-36.4l18.3,207.1"/>
	<path class="st12" d="M365.2,359.8c0,0,5.5,63.3-6.2,73.7l-29.4-28.9l16.6,201.1"/>
	<line class="st12" x1="263.5" y1="404.6" x2="273.4" y2="516.7"/>
	<line class="st12" x1="280.3" y1="430.1" x2="290.6" y2="556.1"/>
	<line class="st12" x1="295" y1="440.7" x2="305.3" y2="577"/>
	<line class="st12" x1="305.3" y1="422.6" x2="320.1" y2="595.6"/>
	<line class="st12" x1="342" y1="416.9" x2="356.2" y2="582"/>
	<line class="st12" x1="359" y1="433.6" x2="366.5" y2="552.8"/>
	<line class="st12" x1="366.5" y1="393.7" x2="379.1" y2="505.4"/>
	<path class="st12" d="M359,354.4c0,0-0.9,59.8-11.1,68.3"/>
	<path class="st12" d="M353.4,354.4c0,0-3.5,51.7-20.6,53.4"/>
	<path class="st12" d="M263.5,366.9c0,0,21.6,51.8,49.3,47"/>
	<path class="st12" d="M259.1,372.7c0,0,23.5,57.3,42.9,57.3"/>
	<circle class="st10" cx="332.8" cy="506.5" r="1.8"/>
	<circle class="st10" cx="329.6" cy="475.6" r="1.8"/>
	<circle class="st10" cx="327.8" cy="444.7" r="1.8"/>
	<circle class="st10" cx="335.4" cy="537.4" r="1.8"/>
	<circle class="st10" cx="338.1" cy="569.3" r="1.8"/>
</g>
<g id="Layer_4">
	<g>
		<path class="st13" d="M202.7,233.4c0,0,0-0.1-0.1-0.1c0,0,0,0,0,0c-0.1,0.2,0,0.4,0,0.6c2.2,3.1,5.5,5.5,8.8,7.4
			c8.6,4.8,16,2.4,20.8-6c4.2-7.1,6.4-15.2,8.4-23.1c1.8-7.3,5.9-28.1,15.5-27.8c1.4,0.2,2.4,1.5,3.4,2.4c0,0,2.9,3.4,2.9,3.4
			s-3.6-2.7-3.6-2.7c-16.2-10.7-26.1,13.5-29.6,25.8c0,0-0.1,0-0.1,0c1.1-3.8,2.3-7.5,3.8-11.2c1.5-3.6,3.3-7.2,5.7-10.4
			c5-7,13.4-10.5,20.9-5c0,0-0.7,0.7-0.7,0.7c-0.9-1-1.9-2.3-3.4-2.2c-8.5,1.3-12.5,19.8-14.3,27c-1,4-2.1,8-3.5,11.9
			c-2.1,5.8-4.5,11.7-8.9,16.1c-8.7,8.4-20.1,0.5-26.6-6.7c-0.1-0.1-0.2-0.3-0.2-0.4C201.8,233.1,202.7,233.4,202.7,233.4
			L202.7,233.4z"/>
	</g>
	<g>
		<path class="st13" d="M296.7,146.3c-14.3-0.4-49.7-1.4-48,19.7c0.8,7,4.7,13.3,9.1,18.6c0,0-0.9,0.4-0.9,0.4
			c-2.1-9.8-1.4-24.6,10.4-27.5c3.5-0.9,7.2-0.7,10.7,0c10.5,2.3,20.6,5.5,30.7,9.1c6.6,2.3,13.4,5.1,20.5,5.1
			c7.1-0.1,14.1-1.5,21.2-1.8c3.5-0.1,7.2-0.1,10.5,1.5c3.1,1.8,5.7,4.3,8.1,7c2.4,2.8,2.9,6.6,1.9,10.1c-1.2,5.2-2.7,10.4-5.6,14.9
			c-1,1.5-2.2,2.9-3.8,3.7c1.6-0.8,2.8-2.2,3.7-3.7c2.9-4.5,4.4-9.7,5.5-14.9c0.4-1.7,0.6-3.5,0.3-5.3c-0.6-3.6-3.4-6.2-6-8.4
			c-1.4-1.1-2.6-2.4-4.2-3.1c-3.2-1.5-6.9-1.5-10.4-1.4c-7.1,0.3-14.1,1.8-21.2,1.9c-7.2,0-14-2.7-20.7-5c-10-3.6-20.2-6.7-30.6-8.9
			c-3.5-0.6-7-0.8-10.4,0.1c-11.3,2.9-11.7,17.1-9.6,26.5c0,0,0.4,2,0.4,2l-1.3-1.5c-4.5-5.5-8.3-12-9.1-19.2c0-0.4,0-1.5-0.1-1.9
			c0-0.4,0.1-1.5,0.2-1.9C251.2,144.4,282.7,145.8,296.7,146.3L296.7,146.3z"/>
	</g>
	<g>
		<path class="st13" d="M256.9,184.9c0.7-5.3,2-11.7,7.1-14.6c11.5-4.2,18.1-4,28.8,2.2c4.3,2.6,8.9,5.8,12.5,9.1
			c-4-3.2-8.2-6.3-12.6-8.8c-8.6-4.9-16.2-6.4-25.6-2.7c-1.2,0.4-2.4,0.6-3.5,1.4c-4.1,3-5.2,8.7-5.7,13.5
			C257.9,185,256.9,184.9,256.9,184.9L256.9,184.9z"/>
	</g>
	<path class="st11" d="M262.3,189.1"/>
	<g>
		<path d="M261.8,189.2c-1-10.5,10.1-7,15.7-3.6c7.3,4.4,12.4,11.4,19.9,15.4c10.5,5.6,22.9,4.9,34.3,3.1
			c-10.6,1.8-22.2,2.8-32.3-1.6c-8.7-3.4-14.6-11.5-22.4-16.1c-3.4-1.8-10.2-5.3-13.3-1.8c-0.9,1.2-1.1,2.9-0.9,4.4L261.8,189.2
			L261.8,189.2z"/>
	</g>
	<g>
		<path d="M226.9,171c-6.9-12.3,0.8-21.8,12.8-25.5c3.5-1.2,7.1-2,10.7-2.6c0,0,0.1,0.7,0.1,0.7c-3.6,0.6-7.2,1.4-10.6,2.6
			c-11.5,3.7-18.9,12.6-12.2,24.3C227.7,170.4,226.9,171,226.9,171L226.9,171z"/>
	</g>
	<g>
		<path class="st14" d="M289,273.9"/>
	</g>
	<g>
		<path class="st14" d="M289.7,255.6"/>
	</g>
	<path class="st15" d="M351,250"/>
	<path class="st15" d="M349.2,231.3"/>
</g>
</svg>
