<svg width="62" height="53" viewBox="0 0 62 53" fill="none" xmlns="http://www.w3.org/2000/svg">
<path d="M35.3915 25.4523L31.2177 34.0145C30.7138 35.0568 29.2526 35.0223 28.7907 33.9628L24.0123 23.0835L21.4929 29.2596H13.5904L28.9167 45.3245C29.5129 45.9533 30.4787 45.9533 31.0749 45.3245L46.4096 29.2596H37.2474L35.3915 25.4523ZM48.2823 10.8174L48.0808 10.602C43.7558 6.07114 36.6764 6.07114 32.343 10.602L30 13.0656L27.657 10.6106C23.332 6.07113 16.2442 6.07113 11.9192 10.6106L11.7177 10.8174C7.62786 15.1071 7.4515 21.9379 11.1046 26.5032H19.7041L22.719 19.0781C23.1725 17.9669 24.7009 17.941 25.188 19.0436L30.0756 30.1813L34.1906 21.7484C34.6861 20.7319 36.0969 20.7319 36.5924 21.7484L38.9102 26.5032H48.8954C52.5485 21.9379 52.3721 15.1071 48.2823 10.8174Z" fill="#24F402"/>
</svg>
