<svg width="63" height="63" viewBox="0 0 63 63" fill="none" xmlns="http://www.w3.org/2000/svg">
<path d="M31.9003 4C24.7291 4 20.0842 7.76851 16.4376 14.4893C15.7761 15.7085 15.98 17.3801 16.9028 18.2775L20.7785 22.0467C21.7104 22.9531 23.0364 22.7411 23.766 21.5687C26.0165 17.9526 27.6859 15.8705 31.2012 15.8705C33.9652 15.8705 37.3839 18.152 37.3839 21.5897C37.3839 24.1885 35.7113 25.5231 32.9822 27.4856C29.7997 29.7741 25.5882 32.6223 25.5882 39.7471V40.875C25.5882 42.4024 26.5535 43.6406 27.7444 43.6406H34.2555C35.4464 43.6406 36.4117 42.4024 36.4117 40.875V40.2098C36.4117 35.2708 47.6663 35.0651 47.6663 21.7C47.6664 11.635 39.5263 4 31.9003 4ZM31 47.0353C27.5683 47.0353 24.7764 50.6162 24.7764 55.0177C24.7764 59.4191 27.5683 63 31 63C34.4317 63 37.2236 59.4191 37.2236 55.0176C37.2236 50.6161 34.4317 47.0353 31 47.0353Z" fill="#F7EE09"/>
</svg>
